# xmcd
#
# Track frame offsets: 
#        150
#        14193
#        28445
#        42546
#        55947
#        69421
#        80887
#        95027
#        106632
#        116347
#        128952
#        140793
#        153853
#        169596
#        182283
#        192444
#        206205
#        220103
#        231551
#        244568
#
# Disc length: 3412 seconds
#
# Revision: 0
# Processed by: cddbd v1.5.2PL0 Copyright (c) Steve Scherf et al.
# Submitted via: ExactAudioCopy v1.3
#
DISCID=2a0d5214
DTITLE=Various Artist - Simply Memphis Blues
DYEAR=2015
DGENRE=Blues
TTITLE0=Howlin' Wolf - Smokestack Lightnin'
TTITLE1=Memphis Minnie - When The Levee Breaks
TTITLE2=Ike Turner - Down And Out
TTITLE3=Bobby 'Blue' Band - Further On Up The Road
TTITLE4=Ida Cox - Pink Slip Blues
TTITLE5=Furry Lewis - Billy Lyon's and Stack-O-Lee
TTITLE6=Memphis Jug Band - Cave Man Blues
TTITLE7=Little Junior's Blue Flames - Love My Baby
TTITLE8=Rosco Gordon - Just A Little Bit
TTITLE9=James Cotton - Hold Me In Your Arms
TTITLE10=Memphis Slim - The Come Back
TTITLE11=Doctor Ross - Chicago Breakdown
TTITLE12=Bessie Smith - Careless Love Blues
TTITLE13=Aretha Franklin - Today I Sing The Blues
TTITLE14=Jackie Brenston - Much Later
TTITLE15=Sleepy John Estes - Milk Cow Blues
TTITLE16=Furry Lewis - Kassie Jones Part 1
TTITLE17=Junior Wells - Little By Little (I'm Losing You)
TTITLE18=Arthur "Big Boy" Crudup - That's All Right
TTITLE19=B.B. King - Mean Old Frisco
EXTD=
EXTT0=
EXTT1=
EXTT2=
EXTT3=
EXTT4=
EXTT5=
EXTT6=
EXTT7=
EXTT8=
EXTT9=
EXTT10=
EXTT11=
EXTT12=
EXTT13=
EXTT14=
EXTT15=
EXTT16=
EXTT17=
EXTT18=
EXTT19=
PLAYORDER=
